<svg xmlns="http://www.w3.org/2000/svg" viewBox="0 0 131.94 29.59"><defs><style>.cls-1,.cls-2{fill:#fff;}.cls-2{fill-rule:evenodd;}.cls-3{fill:none;stroke:#fff;stroke-miterlimit:10;stroke-width:4.02px;}</style></defs><title>logo</title><g id="Capa_2" data-name="Capa 2"><g id="Capa_1-2" data-name="Capa 1"><path class="cls-1" d="M33.51,25.72h0a.59.59,0,0,1-.58-.58V9.24a.6.6,0,0,1,1.19,0V24.53h8.17a.6.6,0,1,1,0,1.19Z"/><path class="cls-1" d="M51.19,13.77a5.84,5.84,0,0,1,5.66,6,5.67,5.67,0,1,1-11.31,0A5.86,5.86,0,0,1,51.19,13.77Zm0,10.78a4.68,4.68,0,0,0,4.49-4.8,4.5,4.5,0,1,0-9,0A4.68,4.68,0,0,0,51.19,24.55Z"/><path class="cls-1" d="M60.48,19.72a6,6,0,0,1,6.14-5.95,6.15,6.15,0,0,1,3.8,1.32.55.55,0,0,1,.07.8.6.6,0,0,1-.8.1,4.87,4.87,0,1,0-3.07,8.56,5,5,0,0,0,3.07-1,.6.6,0,0,1,.8.1.58.58,0,0,1-.12.85,6.17,6.17,0,0,1-3.76,1.27A6,6,0,0,1,60.48,19.72Z"/><path class="cls-1" d="M85.28,14.36V25.14a.58.58,0,0,1-1.17,0V23.36a5.58,5.58,0,0,1-4.49,2.37,5.83,5.83,0,0,1-5.66-6,5.83,5.83,0,0,1,5.66-6,5.55,5.55,0,0,1,4.49,2.34V14.36a.58.58,0,1,1,1.17,0Zm-1.17,5.39a4.5,4.5,0,1,0-9,0,4.5,4.5,0,1,0,9,0Z"/><path class="cls-1" d="M94.53,14.36a.63.63,0,0,1-.59.59H92.41v8.7a.93.93,0,0,0,.88.88.68.68,0,0,1,.61.61.65.65,0,0,1-.61.58,2,2,0,0,1-2.1-2.07v-8.7H89.7c-.58,0-.58-.29-.58-.59s0-.58.58-.58h1.49V9.34a.63.63,0,0,1,.58-.58.66.66,0,0,1,.63.58v4.44h1.54A.63.63,0,0,1,94.53,14.36Z"/><path class="cls-1" d="M100.14,10.46a.6.6,0,0,1,1.2,0V11a.6.6,0,1,1-1.2,0Zm0,3.9a.58.58,0,0,1,.58-.58.58.58,0,0,1,.61.58V25.14a.6.6,0,0,1-1.2,0Z"/><path class="cls-1" d="M115.5,18.65A3.68,3.68,0,0,0,111.82,15a3.75,3.75,0,0,0-3.71,3.68v6.58a.54.54,0,0,1-.12.27.52.52,0,0,1-.44.22h-.15a.64.64,0,0,1-.39-.32.09.09,0,0,1,0-.07.09.09,0,0,0,0,0V14.38a.57.57,0,1,1,1.15,0v1.15a4.85,4.85,0,0,1,8.56,3.12v6.49a.59.59,0,0,1-1.17,0Z"/><path class="cls-1" d="M131.94,14.36V25.14a.58.58,0,1,1-1.17,0V23.36a5.58,5.58,0,0,1-4.49,2.37,5.83,5.83,0,0,1-5.66-6,5.83,5.83,0,0,1,5.66-6,5.55,5.55,0,0,1,4.49,2.34V14.36a.58.58,0,1,1,1.17,0Zm-1.17,5.39a4.5,4.5,0,1,0-9,0,4.5,4.5,0,1,0,9,0Z"/><path class="cls-2" d="M25.66,13.38V14.6a.43.43,0,0,0,0,.09A10.15,10.15,0,0,1,25,17.64a10.06,10.06,0,0,1-8,6.32l-.74.1H15l-.16,0c-.38,0-.77-.08-1.15-.15a9.87,9.87,0,0,1-3.47-1.37A10,10,0,0,1,7,19.19a9.74,9.74,0,0,1-1.36-3.9c0-.24-.06-.49-.09-.73V13.38s0-.08,0-.12c.08-.51.13-1,.24-1.52A9.44,9.44,0,0,1,7.15,8.52,10,10,0,0,1,9.75,5.8,9.88,9.88,0,0,1,14.26,4l.73-.1h1.19l.14,0c.51.08,1,.13,1.52.23a9.74,9.74,0,0,1,4.43,2.27,10,10,0,0,1,3.29,6.19ZM24.4,14a8.81,8.81,0,1,0-8.81,8.8A8.83,8.83,0,0,0,24.4,14Z"/><path class="cls-2" d="M15.34,11.54a2.75,2.75,0,0,0,.37-.2L18.77,9a4.53,4.53,0,0,1,.48-.35.6.6,0,0,1,.75.09.65.65,0,0,1,.11.76c-.62,1.24-1.23,2.48-1.87,3.71a1.89,1.89,0,0,0-.14.88,2.43,2.43,0,0,1-1.13,2,2.07,2.07,0,0,1-1.11.38.86.86,0,0,0-.52.26L12.43,19l-.38.29a.63.63,0,0,1-1-.81l1.63-3.24a1.75,1.75,0,0,1,.11-.2,2.09,2.09,0,0,0,.29-1.21,2.22,2.22,0,0,1,.69-1.54,2.43,2.43,0,0,1,1.53-.74Zm1.5,2.34a1.25,1.25,0,1,0-1.14,1.36A1.26,1.26,0,0,0,16.85,13.88Z"/><path class="cls-3" d="M29.18,14A13.59,13.59,0,0,1,2,14"/><path class="cls-1" d="M2,14.71A.72.72,0,0,1,1.29,14v-.08A.72.72,0,0,1,2,13.2H2a.72.72,0,0,1,.72.73V14A.72.72,0,0,1,2,14.71Z"/><path class="cls-1" d="M3.32,8.89a.72.72,0,0,1-.65-1l.07-.14A.72.72,0,0,1,4,8.35L4,8.47A.72.72,0,0,1,3.32,8.89Zm24.55,0a.72.72,0,0,1-.65-.41l-.06-.13a.72.72,0,1,1,1.3-.64l.07.14a.72.72,0,0,1-.34,1A.71.71,0,0,1,27.86,8.87ZM7.06,4.14a.72.72,0,0,1-.45-1.29l.12-.1a.72.72,0,1,1,.9,1.13L7.52,4A.72.72,0,0,1,7.06,4.14Zm17.05,0A.72.72,0,0,1,23.66,4l-.11-.09a.72.72,0,0,1,.89-1.14l.12.1a.72.72,0,0,1-.45,1.29ZM12.49,1.48A.72.72,0,0,1,12.33.06l.15,0a.72.72,0,0,1,.31,1.41l-.14,0Zm6.19,0-.16,0-.14,0A.72.72,0,0,1,18.69,0l.15,0a.72.72,0,0,1-.16,1.43Z"/><path class="cls-1" d="M29.18,14.71a.72.72,0,0,1-.72-.72v-.07a.72.72,0,0,1,.72-.73h0a.72.72,0,0,1,.72.72V14A.72.72,0,0,1,29.18,14.71Z"/></g></g></svg>